<?xml version="1.0" encoding="utf-8"?>
<!-- Generator: Adobe Illustrator 23.0.1, SVG Export Plug-In . SVG Version: 6.00 Build 0)  -->
<svg version="1.1" id="Layer_1" xmlns="http://www.w3.org/2000/svg" xmlns:xlink="http://www.w3.org/1999/xlink" x="0px" y="0px"
	 viewBox="0 0 862.67 352.51" style="enable-background:new 0 0 862.67 352.51;" xml:space="preserve">
<style type="text/css">
	.st0{fill:none;}
	.st1{stroke:#000000;stroke-miterlimit:10;}
	.st2{fill:#FFFFFF;stroke:#000000;stroke-width:3;stroke-miterlimit:10;}
</style>
<g>
	<path class="st0" d="M4.36,14.62c0,0.64,0,1.32,0,2.03v81.75h50.69l-50.9-85.8C4.28,13.31,4.36,13.98,4.36,14.62z"/>
	<path class="st0" d="M140.53,233.71c0.43,0.71,0.82,1.39,1.17,2.03c0.35,0.64,0.75,1.46,1.17,2.45c0.43-0.99,0.82-1.81,1.17-2.45
		c0.35-0.64,0.75-1.31,1.17-2.03l19.1-33.21h-43.51L140.53,233.71z"/>
	<path class="st0" d="M460.25,286.43c0.71,1.57,1.35,3.09,1.92,4.59c0.57,1.49,1.07,2.88,1.49,4.16c0.43-1.28,0.92-2.67,1.49-4.16
		c0.57-1.49,1.21-3.02,1.92-4.59l35.78-85.92h-78.39L460.25,286.43z"/>
	<path class="st0" d="M277.13,14.51c0-0.71,0.07-1.42,0.21-2.13l-49.37,86.01h49.16V16.65C277.13,15.94,277.13,15.23,277.13,14.51z"
		/>
	<path d="M4.36,16.65c0-0.71,0-1.39,0-2.03c0-0.64-0.07-1.31-0.21-2.03l50.9,85.8h5.13L4.79,5.12C4.07,3.99,3.08,3.42,1.8,3.42H0.09
		v94.98h4.27V16.65z"/>
	<rect x="277.13" y="200.5" width="4.27" height="101.72"/>
	<path d="M145.22,233.71c-0.43,0.71-0.82,1.39-1.17,2.03c-0.36,0.64-0.75,1.46-1.17,2.45c-0.43-0.99-0.82-1.81-1.17-2.45
		c-0.36-0.64-0.75-1.31-1.17-2.03l-19.72-33.21h-5.19l23.63,39.82c0.99,1.42,1.99,2.13,2.99,2.13h1.28c0.99,0,1.99-0.71,2.99-2.13
		l22.86-39.82h-5.04L145.22,233.71z"/>
	<path d="M277.34,12.38c-0.14,0.71-0.21,1.42-0.21,2.13c0,0.71,0,1.42,0,2.13v81.75h4.27V3.42h-1.71c-1.28,0-2.28,0.57-2.99,1.71
		l-53.65,93.27h4.92L277.34,12.38z"/>
	<rect x="0.09" y="200.5" width="4.27" height="101.72"/>
	<path d="M467.08,286.43c-0.71,1.57-1.35,3.09-1.92,4.59c-0.57,1.49-1.07,2.88-1.49,4.16c-0.43-1.28-0.93-2.67-1.49-4.16
		c-0.57-1.49-1.21-3.02-1.92-4.59l-35.78-85.92h-5.37l42.43,101.72h4.27l42.43-101.72h-5.37L467.08,286.43z"/>
	<path d="M343.29,5.55c-0.43-1.42-1.28-2.13-2.56-2.13h-3.84l39.62,94.98h5.45L343.29,5.55z"/>
	<path d="M590.44,3.42h-3.41c-1.57,0-2.56,0.71-2.99,2.13l-38.66,92.84h5.44L590.44,3.42z"/>
	<path d="M861.72,262.52c-0.43-0.43-0.93-0.64-1.49-0.64c-0.43,0-1,0.36-1.71,1.07c-6.69,6.12-13.41,11.56-20.17,16.33
		c-6.76,4.77-14.09,8.79-21.98,12.06c-7.9,3.27-16.62,5.76-26.15,7.47c-9.53,1.71-20.35,2.56-32.44,2.56
		c-19.07,0-36.75-3.38-53.04-10.14c-16.29-6.76-30.41-16.54-42.37-29.35c-11.95-12.81-21.31-28.39-28.07-46.74
		c-1.74-4.72-3.25-9.6-4.54-14.64h-5.25c1.37,5.52,2.99,10.86,4.88,16.02c6.9,18.86,16.54,34.9,28.92,48.13
		c12.38,13.23,27.03,23.37,43.97,30.41c16.93,7.04,35.43,10.57,55.49,10.57c12.38,0,23.69-1.03,33.94-3.09
		c10.25-2.06,19.64-4.91,28.17-8.54c8.54-3.63,16.4-7.97,23.58-13.02c7.18-5.05,13.91-10.64,20.17-16.75L861.72,262.52z"/>
	<path d="M634.41,91.14c6.83-18.35,16.33-33.97,28.49-46.85c12.17-12.88,26.68-22.76,43.54-29.67c16.86-6.9,35.39-10.35,55.6-10.35
		c10.96,0,20.74,0.82,29.35,2.45c8.61,1.64,16.18,3.67,22.73,6.08c6.54,2.42,12.17,5.05,16.86,7.9c4.7,2.85,8.64,5.48,11.85,7.9
		c3.2,2.42,5.76,4.45,7.68,6.08c1.92,1.64,3.45,2.45,4.59,2.45c0.71,0,1.35-0.35,1.92-1.07l0.64-1.07
		c-6.97-5.83-13.84-10.96-20.6-15.37c-6.76-4.41-13.91-8.07-21.45-10.99c-7.54-2.91-15.65-5.09-24.33-6.51
		C782.61,0.71,772.86,0,762.05,0c-21.2,0-40.59,3.67-58.16,10.99c-17.58,7.33-32.66,17.72-45.25,31.16S636.3,71.71,629.4,90.5
		c-0.95,2.59-1.83,5.23-2.66,7.9h5.19C632.7,95.94,633.53,93.52,634.41,91.14z"/>
</g>
<g>
	<path class="st1" d="M51.31,153.44c0,4.95-0.71,9.36-2.12,13.23c-1.42,3.87-3.4,7.15-5.94,9.83c-2.55,2.68-5.59,4.72-9.14,6.12
		c-3.55,1.4-7.46,2.1-11.75,2.1H0v-62.57h22.35c4.29,0,8.21,0.7,11.75,2.1c3.55,1.4,6.59,3.44,9.14,6.12
		c2.55,2.68,4.53,5.96,5.94,9.83C50.6,144.09,51.31,148.5,51.31,153.44z M50.15,153.44c0-4.86-0.68-9.17-2.03-12.94
		c-1.36-3.77-3.26-6.95-5.7-9.54c-2.44-2.59-5.37-4.56-8.78-5.9c-3.41-1.34-7.17-2.01-11.29-2.01H1.07v60.78h21.27
		c4.11,0,7.87-0.67,11.29-2.01c3.41-1.34,6.34-3.31,8.78-5.9c2.44-2.59,4.34-5.77,5.7-9.54C49.47,162.61,50.15,158.3,50.15,153.44z"
		/>
	<path class="st1" d="M110.39,122.16v0.98H74.91v29.32h30.12v0.98H74.91v30.3h35.58l-0.09,0.98H73.83v-62.57H110.39z"/>
	<path class="st1" d="M123,122.16h0.8c0.27,0,0.45,0.15,0.54,0.45l24.49,58.82c0.15,0.33,0.28,0.65,0.4,0.96
		c0.12,0.31,0.22,0.6,0.31,0.87c0.09-0.27,0.19-0.56,0.31-0.87c0.12-0.31,0.25-0.63,0.4-0.96l24.49-58.82
		c0.09-0.3,0.3-0.45,0.63-0.45h0.71l-26.1,62.57h-0.89L123,122.16z"/>
	<path class="st1" d="M229.63,122.16v0.98h-35.49v29.32h30.12v0.98h-30.12v30.3h35.58l-0.09,0.98h-36.56v-62.57H229.63z"/>
	<path class="st1" d="M253.14,183.75h31.91v0.98h-32.98v-62.57h1.07V183.75z"/>
	<path class="st1" d="M353.17,153.44c0,4.95-0.71,9.39-2.12,13.32c-1.42,3.93-3.4,7.28-5.94,10.03c-2.55,2.76-5.59,4.87-9.14,6.35
		c-3.55,1.48-7.46,2.21-11.75,2.21c-4.26,0-8.16-0.74-11.69-2.21c-3.53-1.47-6.57-3.59-9.12-6.35c-2.55-2.76-4.53-6.1-5.94-10.03
		c-1.42-3.93-2.12-8.37-2.12-13.32c0-4.92,0.71-9.35,2.12-13.3c1.41-3.95,3.4-7.31,5.94-10.08c2.55-2.77,5.59-4.9,9.12-6.39
		c3.53-1.49,7.43-2.23,11.69-2.23c4.29,0,8.21,0.74,11.75,2.21c3.55,1.48,6.59,3.6,9.14,6.37c2.55,2.77,4.53,6.13,5.94,10.08
		C352.46,144.05,353.17,148.5,353.17,153.44z M352,153.44c0-4.86-0.68-9.21-2.03-13.05c-1.36-3.84-3.26-7.11-5.7-9.79
		s-5.37-4.73-8.78-6.15c-3.41-1.41-7.17-2.12-11.29-2.12c-4.05,0-7.78,0.71-11.17,2.12c-3.4,1.42-6.32,3.46-8.78,6.15
		c-2.46,2.68-4.38,5.94-5.77,9.79c-1.39,3.84-2.08,8.19-2.08,13.05c0,4.86,0.69,9.2,2.08,13.03c1.39,3.83,3.31,7.08,5.77,9.74
		c2.46,2.67,5.39,4.71,8.78,6.12c3.4,1.42,7.12,2.12,11.17,2.12c4.11,0,7.87-0.71,11.29-2.12c3.41-1.41,6.34-3.46,8.78-6.12
		c2.44-2.67,4.34-5.91,5.7-9.74C351.33,162.64,352,158.3,352,153.44z"/>
	<path class="st1" d="M378.82,157.91v26.82h-1.07v-62.57h14.12c6.82,0,12.06,1.47,15.71,4.42c3.65,2.95,5.47,7.43,5.47,13.45
		c0,2.59-0.51,4.98-1.54,7.17c-1.03,2.19-2.48,4.08-4.36,5.65c-1.88,1.58-4.11,2.82-6.7,3.71c-2.59,0.89-5.45,1.34-8.58,1.34H378.82
		z M378.82,157.02h13.05c3.07,0,5.84-0.44,8.31-1.32c2.47-0.88,4.58-2.08,6.32-3.62c1.74-1.53,3.09-3.33,4.04-5.39
		c0.95-2.06,1.43-4.28,1.43-6.66c0-5.57-1.68-9.79-5.03-12.67c-3.35-2.88-8.38-4.31-15.08-4.31h-13.05V157.02z"/>
	<path class="st1" d="M469.64,122.16v0.98h-35.49v29.32h30.12v0.98h-30.12v30.3h35.58l-0.09,0.98h-36.56v-62.57H469.64z"/>
	<path class="st1" d="M494.93,154.52v30.21h-1.07v-62.57h14.48c6.53,0,11.54,1.27,15.04,3.8c3.5,2.53,5.25,6.48,5.25,11.84
		c0,2.53-0.49,4.82-1.48,6.86c-0.98,2.04-2.37,3.78-4.16,5.21c-1.79,1.43-3.93,2.55-6.41,3.35c-2.49,0.8-5.24,1.24-8.25,1.3
		c0.3,0.12,0.57,0.28,0.8,0.47c0.24,0.19,0.48,0.42,0.72,0.69l24.4,29.05h-0.72c-0.24,0-0.43-0.02-0.58-0.07s-0.34-0.2-0.58-0.47
		l-23.42-28.07c-0.27-0.33-0.53-0.6-0.78-0.8c-0.25-0.21-0.54-0.37-0.85-0.49c-0.31-0.12-0.68-0.2-1.1-0.25
		c-0.42-0.04-0.94-0.07-1.56-0.07H494.93z M494.93,153.62h12.6c3.07,0,5.83-0.36,8.29-1.1c2.46-0.73,4.56-1.77,6.3-3.13
		c1.74-1.36,3.08-3.01,4.02-4.96c0.94-1.95,1.41-4.16,1.41-6.64c0-5.1-1.65-8.83-4.96-11.2c-3.31-2.37-8.06-3.55-14.26-3.55h-13.41
		V153.62z"/>
	<path class="st1" d="M581.55,127.88c-0.15,0.18-0.31,0.27-0.49,0.27c-0.27,0-0.68-0.31-1.23-0.92c-0.55-0.61-1.36-1.27-2.41-1.99
		c-1.06-0.72-2.42-1.38-4.09-1.99c-1.67-0.61-3.75-0.92-6.26-0.92c-2.56,0-4.84,0.39-6.82,1.18c-1.98,0.79-3.64,1.84-4.98,3.15
		c-1.34,1.31-2.36,2.83-3.06,4.56c-0.7,1.73-1.05,3.53-1.05,5.41c0,2.41,0.47,4.42,1.41,6.03c0.94,1.61,2.17,2.96,3.69,4.07
		c1.52,1.1,3.26,2.02,5.23,2.75c1.97,0.73,3.96,1.43,5.99,2.1c2.03,0.67,4.02,1.38,5.99,2.12c1.97,0.75,3.71,1.69,5.23,2.84
		c1.52,1.15,2.75,2.56,3.69,4.25c0.94,1.68,1.41,3.79,1.41,6.32c0,2.56-0.43,4.95-1.3,7.17c-0.86,2.22-2.12,4.16-3.75,5.81
		c-1.64,1.65-3.65,2.96-6.03,3.91c-2.38,0.95-5.09,1.43-8.13,1.43c-2.12,0-4.01-0.19-5.68-0.56c-1.67-0.37-3.2-0.91-4.58-1.61
		c-1.39-0.7-2.66-1.55-3.82-2.55c-1.16-1-2.28-2.14-3.35-3.42l0.18-0.18c0.09-0.09,0.16-0.16,0.22-0.2
		c0.06-0.05,0.16-0.07,0.31-0.07c0.18,0,0.44,0.19,0.78,0.56c0.34,0.37,0.81,0.85,1.41,1.43c0.6,0.58,1.31,1.2,2.15,1.85
		c0.83,0.66,1.85,1.27,3.04,1.85c1.19,0.58,2.55,1.06,4.09,1.43c1.53,0.37,3.28,0.56,5.25,0.56c2.89,0,5.46-0.46,7.71-1.39
		c2.25-0.92,4.16-2.17,5.72-3.73s2.75-3.39,3.58-5.47c0.82-2.09,1.23-4.31,1.23-6.66c0-1.97-0.31-3.66-0.92-5.1
		c-0.61-1.43-1.44-2.66-2.48-3.69c-1.04-1.03-2.26-1.91-3.64-2.64c-1.39-0.73-2.87-1.39-4.45-1.97c-1.58-0.58-3.19-1.12-4.83-1.61
		c-1.64-0.49-3.25-1.03-4.83-1.63c-1.58-0.6-3.06-1.27-4.45-2.03c-1.39-0.76-2.6-1.68-3.64-2.77c-1.04-1.09-1.87-2.38-2.48-3.89
		c-0.61-1.5-0.92-3.28-0.92-5.34c0-2,0.37-3.91,1.12-5.74c0.74-1.83,1.83-3.45,3.26-4.85c1.43-1.4,3.2-2.52,5.3-3.35
		c2.1-0.83,4.51-1.25,7.22-1.25c3.04,0,5.73,0.49,8.07,1.47c2.34,0.98,4.54,2.55,6.59,4.69L581.55,127.88z"/>
	<path class="st1" d="M626.95,184.73v-62.57h16.27c6.64,0,11.6,1.33,14.86,4c3.26,2.67,4.89,6.52,4.89,11.55
		c0,1.85-0.37,3.64-1.1,5.36c-0.73,1.73-1.73,3.28-2.99,4.65c-1.27,1.37-2.78,2.51-4.54,3.42c-1.76,0.91-3.66,1.47-5.72,1.68
		c2.65,0.21,5.04,0.71,7.17,1.5c2.13,0.79,3.95,1.85,5.45,3.17c1.5,1.33,2.66,2.9,3.46,4.72c0.8,1.82,1.21,3.84,1.21,6.08
		c0,2.65-0.45,5.01-1.36,7.06c-0.91,2.06-2.23,3.78-3.98,5.16c-1.74,1.39-3.87,2.44-6.39,3.15c-2.52,0.71-5.37,1.07-8.56,1.07
		H626.95z M628.03,152.55h15.64c3.34,0,6.17-0.46,8.49-1.39c2.32-0.92,4.22-2.11,5.68-3.55c1.46-1.44,2.52-3.04,3.17-4.78
		s0.98-3.45,0.98-5.12c0-4.65-1.54-8.25-4.63-10.82c-3.08-2.56-7.8-3.84-14.15-3.84h-15.2V152.55z M628.03,153.44v30.39h17.61
		c3.01,0,5.7-0.33,8.09-0.98s4.4-1.63,6.06-2.93c1.65-1.3,2.91-2.92,3.78-4.87c0.86-1.95,1.3-4.21,1.3-6.77
		c0-2.26-0.45-4.31-1.36-6.15c-0.91-1.83-2.19-3.4-3.84-4.69c-1.65-1.3-3.66-2.29-6.03-2.97c-2.37-0.68-5-1.03-7.89-1.03H628.03z"/>
	<path class="st1" d="M690.24,183.75h31.91v0.98h-32.98v-62.57h1.07V183.75z"/>
	<path class="st1" d="M790.26,153.44c0,4.95-0.71,9.39-2.12,13.32c-1.42,3.93-3.4,7.28-5.94,10.03c-2.55,2.76-5.59,4.87-9.14,6.35
		c-3.55,1.48-7.46,2.21-11.75,2.21c-4.26,0-8.16-0.74-11.69-2.21c-3.53-1.47-6.57-3.59-9.12-6.35c-2.55-2.76-4.53-6.1-5.94-10.03
		c-1.42-3.93-2.12-8.37-2.12-13.32c0-4.92,0.71-9.35,2.12-13.3c1.41-3.95,3.4-7.31,5.94-10.08c2.55-2.77,5.59-4.9,9.12-6.39
		c3.53-1.49,7.43-2.23,11.69-2.23c4.29,0,8.21,0.74,11.75,2.21c3.55,1.48,6.59,3.6,9.14,6.37c2.55,2.77,4.53,6.13,5.94,10.08
		C789.55,144.05,790.26,148.5,790.26,153.44z M789.1,153.44c0-4.86-0.68-9.21-2.03-13.05c-1.36-3.84-3.26-7.11-5.7-9.79
		c-2.44-2.68-5.37-4.73-8.78-6.15c-3.41-1.41-7.17-2.12-11.28-2.12c-4.05,0-7.78,0.71-11.17,2.12c-3.4,1.42-6.32,3.46-8.78,6.15
		s-4.38,5.94-5.77,9.79c-1.38,3.84-2.08,8.19-2.08,13.05c0,4.86,0.69,9.2,2.08,13.03c1.39,3.83,3.31,7.08,5.77,9.74
		c2.46,2.67,5.39,4.71,8.78,6.12c3.4,1.42,7.12,2.12,11.17,2.12c4.11,0,7.87-0.71,11.28-2.12c3.41-1.41,6.34-3.46,8.78-6.12
		c2.44-2.67,4.34-5.91,5.7-9.74C788.42,162.64,789.1,158.3,789.1,153.44z"/>
	<path class="st1" d="M839.07,184.55c2.56,0,4.88-0.14,6.95-0.42c2.07-0.28,4-0.7,5.79-1.25c1.79-0.55,3.48-1.22,5.07-2.01
		c1.59-0.79,3.2-1.69,4.81-2.7v-19.44h-14.03c-0.36,0-0.54-0.15-0.54-0.45v-0.45h15.55v20.74c-1.55,1.04-3.15,1.99-4.8,2.84
		c-1.65,0.85-3.43,1.57-5.32,2.17c-1.89,0.6-3.95,1.06-6.17,1.39s-4.66,0.49-7.31,0.49c-4.5,0-8.58-0.74-12.25-2.21
		c-3.66-1.48-6.8-3.6-9.41-6.37c-2.61-2.77-4.63-6.13-6.06-10.08c-1.43-3.95-2.15-8.39-2.15-13.34c0-4.92,0.72-9.35,2.15-13.3
		c1.43-3.95,3.49-7.31,6.17-10.08c2.68-2.77,5.92-4.9,9.72-6.39c3.8-1.49,8.07-2.23,12.8-2.23c2.32,0,4.45,0.14,6.39,0.42
		c1.94,0.28,3.73,0.72,5.39,1.32c1.65,0.6,3.21,1.34,4.67,2.23c1.46,0.89,2.89,1.97,4.29,3.22l-0.13,0.22
		c-0.12,0.15-0.25,0.22-0.4,0.22c-0.24,0-0.75-0.35-1.52-1.05c-0.77-0.7-1.94-1.48-3.51-2.32c-1.56-0.85-3.58-1.62-6.06-2.32
		c-2.47-0.7-5.51-1.05-9.12-1.05c-4.53,0-8.63,0.71-12.29,2.12c-3.66,1.42-6.79,3.46-9.39,6.15c-2.59,2.68-4.59,5.94-5.99,9.79
		c-1.4,3.84-2.1,8.19-2.1,13.05c0,4.86,0.69,9.21,2.08,13.05c1.38,3.84,3.34,7.11,5.88,9.79c2.53,2.68,5.56,4.73,9.1,6.15
		C830.87,183.84,834.78,184.55,839.07,184.55z"/>
</g>
<line class="st2" x1="0" y1="98.39" x2="862.67" y2="98.39"/>
<line class="st2" x1="0" y1="200.5" x2="862.67" y2="200.5"/>
<g>
	<path d="M21.17,317.18v2.12H2.57v14.86h16.1v2.12H2.57v16.23H0v-35.33H21.17z"/>
	<path d="M82.04,334.83c0,2.73-0.41,5.21-1.22,7.43c-0.82,2.22-1.96,4.12-3.45,5.69c-1.48,1.57-3.25,2.79-5.32,3.65
		c-2.06,0.86-4.35,1.29-6.87,1.29c-2.48,0-4.75-0.43-6.82-1.29c-2.06-0.86-3.84-2.07-5.32-3.65c-1.48-1.57-2.63-3.47-3.46-5.69
		c-0.82-2.22-1.24-4.7-1.24-7.43c0-2.71,0.41-5.18,1.24-7.4c0.82-2.22,1.98-4.12,3.46-5.69c1.48-1.57,3.25-2.79,5.32-3.66
		c2.06-0.87,4.34-1.3,6.82-1.3c2.51,0,4.8,0.43,6.87,1.29c2.06,0.86,3.84,2.08,5.32,3.66c1.48,1.58,2.63,3.48,3.45,5.71
		C81.63,329.65,82.04,332.12,82.04,334.83z M79.39,334.83c0-2.46-0.34-4.68-1.02-6.64c-0.68-1.96-1.64-3.63-2.88-4.99
		c-1.24-1.37-2.73-2.41-4.48-3.13c-1.75-0.72-3.69-1.09-5.82-1.09c-2.1,0-4.02,0.36-5.75,1.09c-1.74,0.72-3.24,1.77-4.49,3.13
		c-1.26,1.36-2.23,3.03-2.92,4.99c-0.69,1.96-1.04,4.18-1.04,6.64c0,2.48,0.35,4.7,1.04,6.65c0.69,1.96,1.66,3.62,2.92,4.98
		c1.26,1.36,2.75,2.4,4.49,3.12c1.74,0.72,3.66,1.07,5.75,1.07c2.13,0,4.07-0.36,5.82-1.07c1.75-0.72,3.24-1.76,4.48-3.12
		c1.24-1.36,2.2-3.03,2.88-4.98C79.05,339.53,79.39,337.31,79.39,334.83z"/>
	<path d="M115.62,336.53v15.98h-2.55v-35.33h9.01c4.08,0,7.12,0.79,9.14,2.36c2.01,1.57,3.02,3.88,3.02,6.93
		c0,1.35-0.23,2.58-0.7,3.7c-0.47,1.12-1.14,2.09-2.01,2.93c-0.87,0.84-1.93,1.53-3.16,2.07c-1.23,0.54-2.62,0.89-4.17,1.06
		c0.4,0.25,0.76,0.58,1.07,1l12.16,15.28h-2.22c-0.27,0-0.5-0.05-0.69-0.15c-0.19-0.1-0.38-0.27-0.56-0.5l-11.31-14.33
		c-0.28-0.37-0.59-0.62-0.91-0.77c-0.32-0.15-0.83-0.22-1.51-0.22H115.62z M115.62,334.63h6.14c1.56,0,2.97-0.19,4.21-0.56
		c1.24-0.37,2.29-0.91,3.15-1.61c0.86-0.7,1.51-1.54,1.96-2.52c0.45-0.98,0.67-2.09,0.67-3.32c0-2.51-0.82-4.38-2.47-5.59
		c-1.65-1.21-4.04-1.82-7.19-1.82h-6.47V334.63z"/>
	<path d="M224,352.51h-1.97c-0.23,0-0.42-0.06-0.57-0.19c-0.15-0.12-0.27-0.29-0.35-0.49l-4.17-10.26h-17.35l-4.14,10.26
		c-0.07,0.18-0.18,0.34-0.35,0.47c-0.17,0.13-0.37,0.2-0.6,0.2h-1.95L207,317.18h2.55L224,352.51z M200.36,339.67h15.83l-7.21-17.85
		c-0.12-0.28-0.23-0.6-0.35-0.96c-0.12-0.36-0.23-0.74-0.35-1.14c-0.12,0.4-0.23,0.78-0.35,1.14c-0.12,0.36-0.23,0.69-0.35,0.99
		L200.36,339.67z"/>
	<path d="M254.11,350.33h16.75v2.17h-19.3v-35.33h2.55V350.33z"/>
	<path d="M301.62,350.33h16.75v2.17h-19.3v-35.33h2.55V350.33z"/>
	<path d="M401.26,317.18v2.17h-12.41v33.16h-2.55v-33.16h-12.48v-2.17H401.26z"/>
	<path d="M456.61,352.51h-2.57v-16.93h-22.12v16.93h-2.57v-35.33h2.57v16.48h22.12v-16.48h2.57V352.51z"/>
	<path d="M492.56,352.51h-2.57v-35.33h2.57V352.51z"/>
	<path d="M527.77,317.27c0.13,0.06,0.28,0.19,0.42,0.39l22.87,30.61c-0.05-0.5-0.08-0.98-0.08-1.45v-29.64h2.25v35.33h-1.22
		c-0.38,0-0.69-0.17-0.92-0.5l-22.97-30.66c0.05,0.5,0.07,0.97,0.07,1.42v29.74h-2.22v-35.33h1.25
		C527.45,317.18,527.63,317.21,527.77,317.27z"/>
	<path d="M600.87,350.83c1.21,0,2.32-0.06,3.32-0.19c1-0.12,1.93-0.31,2.78-0.56s1.67-0.55,2.45-0.91c0.77-0.36,1.55-0.76,2.33-1.21
		v-9.51h-6.79c-0.18,0-0.34-0.06-0.46-0.17c-0.12-0.12-0.19-0.25-0.19-0.4v-1.4h9.76v12.56c-0.88,0.62-1.8,1.16-2.75,1.65
		c-0.95,0.48-1.96,0.89-3.05,1.21c-1.08,0.32-2.25,0.57-3.5,0.75c-1.25,0.17-2.61,0.26-4.09,0.26c-2.55,0-4.87-0.43-6.98-1.29
		c-2.11-0.86-3.91-2.07-5.42-3.64c-1.51-1.57-2.68-3.47-3.51-5.71c-0.83-2.23-1.25-4.71-1.25-7.44s0.42-5.2,1.25-7.43
		c0.83-2.22,2.01-4.12,3.55-5.69c1.53-1.57,3.39-2.79,5.58-3.64c2.19-0.86,4.64-1.29,7.35-1.29c1.35,0,2.59,0.09,3.73,0.28
		c1.14,0.18,2.2,0.45,3.18,0.81c0.98,0.36,1.9,0.8,2.75,1.32c0.85,0.52,1.66,1.13,2.45,1.81l-0.67,1.1
		c-0.15,0.25-0.36,0.37-0.62,0.37c-0.15,0-0.29-0.03-0.42-0.1c-0.25-0.1-0.61-0.33-1.09-0.7c-0.47-0.37-1.11-0.75-1.92-1.15
		c-0.81-0.4-1.82-0.76-3.03-1.07c-1.22-0.32-2.69-0.47-4.42-0.47c-2.3,0-4.37,0.37-6.22,1.1c-1.85,0.73-3.42,1.78-4.73,3.15
		c-1.31,1.37-2.31,3.03-3.02,4.99c-0.71,1.96-1.06,4.17-1.06,6.62c0,2.5,0.36,4.74,1.07,6.72c0.72,1.98,1.72,3.66,3.01,5.03
		c1.29,1.37,2.84,2.43,4.64,3.16C596.69,350.47,598.69,350.83,600.87,350.83z"/>
	<path d="M662.14,321.47c-0.15,0.28-0.37,0.42-0.65,0.42c-0.22,0-0.5-0.15-0.84-0.46c-0.34-0.31-0.81-0.65-1.39-1.02
		c-0.58-0.37-1.31-0.72-2.19-1.04c-0.88-0.32-1.96-0.47-3.24-0.47c-1.29,0-2.42,0.18-3.39,0.55c-0.98,0.37-1.8,0.87-2.46,1.5
		c-0.66,0.63-1.16,1.36-1.5,2.2c-0.34,0.83-0.51,1.71-0.51,2.62c0,1.2,0.25,2.19,0.76,2.97c0.51,0.78,1.18,1.45,2.01,2
		c0.83,0.55,1.78,1.01,2.84,1.39c1.06,0.37,2.15,0.75,3.26,1.11c1.12,0.37,2.2,0.77,3.26,1.21c1.06,0.44,2,0.99,2.84,1.66
		c0.83,0.67,1.5,1.49,2.01,2.46c0.51,0.97,0.76,2.18,0.76,3.63c0,1.48-0.25,2.88-0.76,4.18c-0.51,1.31-1.24,2.44-2.21,3.41
		c-0.97,0.97-2.15,1.73-3.55,2.28c-1.4,0.56-3,0.84-4.79,0.84c-2.33,0-4.34-0.41-6.02-1.24c-1.68-0.82-3.15-1.95-4.42-3.38l0.7-1.1
		c0.2-0.25,0.43-0.37,0.7-0.37c0.15,0,0.34,0.1,0.57,0.3c0.23,0.2,0.52,0.45,0.85,0.74c0.33,0.29,0.73,0.61,1.2,0.95
		c0.47,0.34,1.01,0.66,1.63,0.95c0.62,0.29,1.32,0.54,2.13,0.74c0.8,0.2,1.71,0.3,2.72,0.3c1.4,0,2.65-0.21,3.75-0.64
		c1.1-0.42,2.03-1,2.79-1.74c0.76-0.73,1.34-1.6,1.74-2.61c0.4-1.01,0.6-2.08,0.6-3.23c0-1.25-0.25-2.28-0.76-3.08
		c-0.51-0.81-1.18-1.48-2.01-2.02c-0.83-0.54-1.78-0.99-2.84-1.36s-2.15-0.72-3.26-1.07c-1.12-0.35-2.2-0.74-3.26-1.17
		c-1.06-0.43-2-0.99-2.84-1.66c-0.83-0.67-1.5-1.51-2.01-2.52s-0.76-2.27-0.76-3.78c0-1.18,0.23-2.32,0.67-3.42
		c0.45-1.1,1.11-2.07,1.97-2.91c0.87-0.84,1.94-1.51,3.21-2.02c1.27-0.51,2.73-0.76,4.36-0.76c1.83,0,3.48,0.29,4.94,0.87
		c1.46,0.58,2.79,1.47,3.99,2.67L662.14,321.47z"/>
	<path d="M754.44,334.83c0,2.73-0.41,5.19-1.22,7.37c-0.82,2.18-1.96,4.04-3.45,5.57s-3.25,2.71-5.32,3.52
		c-2.06,0.82-4.35,1.22-6.87,1.22H724.7v-35.33h12.88c2.51,0,4.8,0.41,6.87,1.22c2.06,0.82,3.84,1.99,5.32,3.52s2.63,3.39,3.45,5.57
		S754.44,332.12,754.44,334.83z M751.79,334.83c0-2.46-0.34-4.66-1.02-6.59c-0.68-1.93-1.64-3.56-2.88-4.89
		c-1.24-1.33-2.73-2.35-4.48-3.05c-1.75-0.7-3.69-1.05-5.82-1.05h-10.31v31.18h10.31c2.13,0,4.07-0.35,5.82-1.05
		c1.75-0.7,3.24-1.71,4.48-3.05c1.24-1.33,2.2-2.96,2.88-4.89C751.45,339.52,751.79,337.31,751.79,334.83z"/>
	<path d="M805.79,317.18v2.12h-18.6v14.28h15.48v2.07h-15.48v14.73h18.6v2.12h-21.17v-35.33H805.79z"/>
	<path d="M831.23,317.18h2.02c0.23,0,0.42,0.06,0.57,0.19c0.15,0.12,0.27,0.29,0.35,0.49l12.03,29.31c0.32,0.77,0.57,1.58,0.77,2.45
		c0.18-0.9,0.42-1.71,0.72-2.45l12.01-29.31c0.08-0.18,0.2-0.34,0.36-0.47c0.16-0.13,0.35-0.2,0.59-0.2h2l-14.58,35.33h-2.27
		L831.23,317.18z"/>
</g>
</svg>
